# xmcd
#
# Track frame offsets:
#	150
#	21807
#	43776
#	71937
#	100314
#	119523
#	145140
#	176181
#	207462
#	231087
#	259560
#	279321
#
# Disc length: 4030 seconds
#
# Revision: 0
# Processed by: cddbd v1.5.2PL0 Copyright (c) Steve Scherf et al.
# Submitted via: dBpowerAMP V4.0
#
DISCID=b60fbc0c
DTITLE=Cole Prior Stevens - Slide-Ville
DYEAR=2007
DGENRE=Blues
TTITLE0=Tell Me
TTITLE1=Red Light Blues
TTITLE2=Cherry Treee Blues
TTITLE3=Land Of Plenty
TTITLE4=Willy Peter Blues
TTITLE5=Blues Is My Religion
TTITLE6=Country Boy
TTITLE7=Dirty Little War
TTITLE8=Train Load of Blues
TTITLE9=Tumble With My Baby
TTITLE10=Impatient Blues
TTITLE11=Hidden Bonus Track
EXTD=
EXTT0=
EXTT1=
EXTT2=
EXTT3=
EXTT4=
EXTT5=
EXTT6=
EXTT7=
EXTT8=
EXTT9=
EXTT10=
EXTT11=
PLAYORDER=
